<svg width="16" height="18" viewBox="0 0 16 18" fill="none" xmlns="http://www.w3.org/2000/svg">
<path d="M7.99996 1.51613C9.3525 1.51613 10.4489 2.67152 10.4489 4.09677V4.6129H5.55099V4.09677C5.55099 2.67152 6.64743 1.51613 7.99996 1.51613ZM11.4285 4.6129V4.09677C11.4285 2.10142 9.89351 0.483871 7.99996 0.483871C6.10642 0.483871 4.57139 2.10142 4.57139 4.09677V4.6129H1.14282V14.9355C1.14282 16.0757 2.01998 17 3.10201 17H12.8979C13.98 17 14.8571 16.0757 14.8571 14.9355V4.6129H11.4285ZM2.12241 5.64516H13.8775V14.9355C13.8775 15.5056 13.4389 15.9677 12.8979 15.9677H3.10201C2.56099 15.9677 2.12241 15.5056 2.12241 14.9355V5.64516Z" fill="#151823" stroke="#151823" stroke-width="0.5"/>
</svg>
