<svg width="24" height="27" viewBox="0 0 24 27" fill="none" xmlns="http://www.w3.org/2000/svg">
<path d="M12 2.77419C14.0288 2.77419 15.6735 4.50729 15.6735 6.64516V7.41936H8.32654V6.64516C8.32654 4.50729 9.97121 2.77419 12 2.77419ZM17.1429 7.41936V6.64516C17.1429 3.65213 14.8403 1.22581 12 1.22581C9.15969 1.22581 6.85715 3.65213 6.85715 6.64516V7.41936H1.71429V22.9032C1.71429 24.6135 3.03003 26 4.65307 26H19.3469C20.97 26 22.2857 24.6135 22.2857 22.9032V7.41936H17.1429ZM3.18368 8.96774H20.8163V22.9032C20.8163 23.7584 20.1585 24.4516 19.3469 24.4516H4.65307C3.84155 24.4516 3.18368 23.7584 3.18368 22.9032V8.96774Z" fill="white" stroke="white" stroke-width="0.5"/>
</svg>
