<svg width="104" height="48" viewBox="0 0 104 48" fill="none" xmlns="http://www.w3.org/2000/svg">
<path d="M4.54601 29V28.104L8.83001 27.684H9.95001L14.318 28.104V29H4.54601ZM7.15001 29C7.23401 25.864 7.23401 22.588 7.23401 19.312V17.996C7.23401 14.72 7.23401 11.5 7.15001 8.28H11.294C11.21 11.444 11.21 14.72 11.21 17.996V19.956C11.21 22.616 11.21 25.78 11.294 29H7.15001ZM9.22201 20.656V19.648H12.386C15.97 19.648 17.566 17.492 17.566 14.384C17.566 11.024 15.942 9.288 12.75 9.288H9.22201V8.28H12.834C18.798 8.28 21.318 10.548 21.318 14.384C21.318 17.884 18.882 20.656 12.498 20.656H9.22201ZM4.54601 9.204V8.28H9.22201V9.568H8.83001L4.54601 9.204ZM22.5251 29V28.104L26.8091 27.684H27.2291L27.2011 29H22.5251ZM25.1291 29C25.2131 25.864 25.2131 22.588 25.2131 19.9V17.996C25.2131 14.72 25.2131 11.472 25.1291 8.28H29.2731C29.1891 11.472 29.1891 14.72 29.1891 17.828V19.564C29.1891 22.532 29.1891 25.78 29.2731 29H25.1291ZM27.2011 29L27.2291 27.964H37.3651L35.4051 28.888L36.8331 23.008H38.2611L38.2331 29H27.2011ZM22.5251 9.204V8.28H32.0731V9.204L27.7331 9.568H26.8091L22.5251 9.204ZM39.0339 29V28.104L41.8059 27.712H42.3379L45.3619 28.104V29H39.0339ZM40.9659 29L47.9379 8.168H50.3739L57.4859 29H53.4259L47.5179 10.632H48.1059L48.0219 11.024L42.3659 29H40.9659ZM44.0739 22.252L44.2699 21.328H53.1459L53.3419 22.252H44.0739ZM50.1779 29V28.076L53.9579 27.684H55.3859L59.2779 28.076V29H50.1779ZM60.0372 29V28.104L62.9772 27.684H63.7612L67.5972 28.104V29H60.0372ZM62.7532 29V9.036H63.7892L64.0972 21.72V29H62.7532ZM73.2252 9.204V8.28H80.7852V9.204L77.8452 9.568H77.1172L73.2252 9.204ZM75.9972 29.112L63.4812 10.912L63.3972 10.828L62.4732 9.4L60.1212 9.204V8.28H66.3372L77.5092 24.548L76.9772 24.744L76.8652 16.428V8.28H78.0412V29.112H75.9972ZM85.9772 29V28.104L90.3732 27.684H91.4652L95.9732 28.104V29H85.9772ZM88.8892 29C88.9732 25.864 88.9732 22.588 88.9732 19.312V17.996C88.9732 14.72 88.9732 11.5 88.8892 8.28H93.0332C92.9492 11.444 92.9492 14.72 92.9492 17.996V19.312C92.9492 22.532 92.9492 25.78 93.0332 29H88.8892ZM81.8612 14.076L82.0292 8.28H99.9212L100.061 14.076H98.6052L97.0932 8.28L98.9692 9.344H82.9252L84.8292 8.28L83.3732 14.076H81.8612Z" fill="#151823"/>
<path d="M4.07621 46V45.584L6.06521 45.389H6.58521L8.61321 45.584V46H4.07621ZM5.28521 46C5.32421 44.544 5.32421 43.023 5.32421 41.502V40.891C5.32421 39.37 5.32421 37.875 5.28521 36.38H7.20921C7.17021 37.849 7.17021 39.37 7.17021 40.891V41.801C7.17021 43.036 7.17021 44.505 7.20921 46H5.28521ZM6.24721 42.126V41.658H7.71621C9.38021 41.658 10.1212 40.657 10.1212 39.214C10.1212 37.654 9.36721 36.848 7.88521 36.848H6.24721V36.38H7.92421C10.6932 36.38 11.8632 37.433 11.8632 39.214C11.8632 40.839 10.7322 42.126 7.76821 42.126H6.24721ZM4.07621 36.809V36.38H6.24721V36.978H6.06521L4.07621 36.809ZM11.2393 46V45.584L12.5263 45.402H12.7733L14.1773 45.584V46H11.2393ZM12.1363 46L15.3733 36.328H16.5043L19.8063 46H17.9213L15.1783 37.472H15.4513L15.4123 37.654L12.7863 46H12.1363ZM13.5793 42.867L13.6703 42.438H17.7913L17.8823 42.867H13.5793ZM16.4133 46V45.571L18.1683 45.389H18.8313L20.6383 45.571V46H16.4133ZM21.2911 46V45.584L23.2801 45.389H23.6571L25.6461 45.584V46H21.2911ZM22.5001 46C22.5391 44.544 22.5391 43.023 22.5391 41.502V40.891C22.5391 39.37 22.5391 37.875 22.5001 36.38H24.3981C24.3591 37.862 24.3591 39.344 24.3591 41.086V41.424C24.3591 42.997 24.3591 44.505 24.3981 46H22.5001ZM28.9481 46.182C27.8691 46.182 27.3101 45.857 27.1671 44.96L26.6991 43.023C26.4781 41.944 26.1531 41.476 25.1001 41.476H23.4881V41.008H25.3081C26.7641 41.008 27.4271 40.046 27.4271 38.85C27.4271 37.576 26.7121 36.848 25.3081 36.848H23.4621V36.38H25.7371C27.9471 36.38 29.1691 37.264 29.1691 38.824C29.1691 40.046 28.2331 41.151 25.7761 41.294V41.151C27.8301 41.255 28.3631 41.905 28.6361 43.27L29.2341 45.857L28.3241 45.454L30.3521 45.584V46C29.8971 46.117 29.5331 46.182 28.9481 46.182ZM21.2911 36.809V36.38H23.4621V36.978H23.2801L21.2911 36.809ZM31.0538 46V45.584L33.0428 45.389H33.2248V46H31.0538ZM32.2628 46C32.3018 44.544 32.3018 43.023 32.3018 41.502V40.891C32.3018 39.37 32.3018 37.875 32.2628 36.38H34.1868C34.1478 37.849 34.1478 39.37 34.1478 40.969V41.333C34.1478 42.997 34.1478 44.505 34.1868 46H32.2628ZM33.2248 46V45.519H38.2038L37.2678 45.961L37.9048 43.426H38.5678L38.5548 46H33.2248ZM33.2248 41.333V40.878H36.4228V41.333H33.2248ZM36.2798 42.646L36.0848 41.203V40.93L36.2798 39.5H36.8648V42.646H36.2798ZM31.0538 36.809V36.38H33.2248V36.978H33.0428L31.0538 36.809ZM37.6317 38.876L37.0208 36.406L37.9308 36.874H33.2248V36.38H38.3078L38.3208 38.876H37.6317ZM39.621 46V45.584L40.986 45.389H41.35L43.131 45.584V46H39.621ZM40.882 46V36.731H41.363L41.506 42.62V46H40.882ZM45.744 36.809V36.38H49.254V36.809L47.889 36.978H47.551L45.744 36.809ZM47.031 46.052L41.22 37.602L41.181 37.563L40.752 36.9L39.66 36.809V36.38H42.546L47.733 43.933L47.486 44.024L47.434 40.163V36.38H47.98V46.052H47.031ZM51.9245 46V45.584L53.9655 45.389H54.4725L56.5655 45.584V46H51.9245ZM53.2765 46C53.3155 44.544 53.3155 43.023 53.3155 41.502V40.891C53.3155 39.37 53.3155 37.875 53.2765 36.38H55.2005C55.1615 37.849 55.1615 39.37 55.1615 40.891V41.502C55.1615 42.997 55.1615 44.505 55.2005 46H53.2765ZM50.0135 39.071L50.0915 36.38H58.3985L58.4635 39.071H57.7875L57.0855 36.38L57.9565 36.874H50.5075L51.3915 36.38L50.7155 39.071H50.0135ZM59.3516 46V45.584L61.2756 45.389H61.6396L63.6286 45.584V46H59.3516ZM60.5476 46C60.5736 44.544 60.5736 43.023 60.5736 41.502V40.891C60.5736 39.37 60.5736 37.875 60.5476 36.38H62.4716C62.4326 37.849 62.4326 39.37 62.4326 40.891V41.255C62.4326 42.997 62.4326 44.505 62.4716 46H60.5476ZM61.5096 41.307V40.839H67.2556V41.307H61.5096ZM65.1236 46V45.584L67.0996 45.389H67.4506L69.4136 45.584V46H65.1236ZM66.2806 46C66.3326 44.544 66.3326 43.023 66.3326 41.255V40.891C66.3326 39.37 66.3326 37.875 66.2806 36.38H68.2176C68.1786 37.849 68.1786 39.37 68.1786 40.891V41.502C68.1786 42.997 68.1786 44.505 68.2176 46H66.2806ZM59.3516 36.809V36.38H63.6286V36.809L61.6396 36.978H61.2756L59.3516 36.809ZM65.1236 36.809V36.38H69.4136V36.809L67.4506 36.978H67.0996L65.1236 36.809ZM74.9075 46.247C72.5155 46.247 70.4225 44.492 70.4225 41.19C70.4225 37.927 72.5155 36.133 74.9075 36.133C77.3125 36.133 79.3925 37.901 79.3925 41.19C79.3925 44.466 77.3255 46.247 74.9075 46.247ZM74.9075 45.766C76.6365 45.766 77.4555 43.79 77.4555 41.19C77.4555 38.603 76.6365 36.614 74.9075 36.614C73.1915 36.614 72.3595 38.603 72.3595 41.19C72.3595 43.79 73.1915 45.766 74.9075 45.766ZM85.3304 46.247C82.9384 46.247 80.8454 44.492 80.8454 41.19C80.8454 37.927 82.9384 36.133 85.3304 36.133C87.7354 36.133 89.8154 37.901 89.8154 41.19C89.8154 44.466 87.7484 46.247 85.3304 46.247ZM85.3304 45.766C87.0594 45.766 87.8784 43.79 87.8784 41.19C87.8784 38.603 87.0594 36.614 85.3304 36.614C83.6144 36.614 82.7824 38.603 82.7824 41.19C82.7824 43.79 83.6144 45.766 85.3304 45.766ZM90.836 46V45.584L92.825 45.389H93.007V46H90.836ZM92.045 46C92.084 44.544 92.084 43.023 92.084 41.333V40.93C92.084 39.37 92.084 37.875 92.045 36.38H93.969C93.93 37.849 93.93 39.37 93.93 40.93V41.333C93.93 42.997 93.93 44.505 93.969 46H92.045ZM93.007 46V45.545H94.697C96.803 45.545 97.973 43.92 97.973 41.19C97.973 38.356 96.803 36.848 94.775 36.848H93.007V36.38H94.957C98.051 36.38 99.884 38.174 99.884 41.177C99.884 44.167 97.947 46 94.749 46H93.007ZM90.836 36.809V36.38H93.007V36.978H92.825L90.836 36.809Z" fill="#151823"/>
</svg>
