<svg width="112" height="57" viewBox="0 0 112 57" fill="none" xmlns="http://www.w3.org/2000/svg">
<path d="M1.76687 34.5385V33.5145L6.66287 33.0345H7.94287L12.9349 33.5145V34.5385H1.76687ZM4.74287 34.5385C4.83887 30.9545 4.83887 27.2105 4.83887 23.4665V21.9625C4.83887 18.2185 4.83887 14.5385 4.74287 10.8585H9.47887C9.38287 14.4745 9.38287 18.2185 9.38287 21.9625V24.2025C9.38287 27.2425 9.38287 30.8585 9.47887 34.5385H4.74287ZM7.11087 25.0025V23.8505H10.7269C14.8229 23.8505 16.6469 21.3865 16.6469 17.8345C16.6469 13.9945 14.7909 12.0105 11.1429 12.0105H7.11087V10.8585H11.2389C18.0549 10.8585 20.9349 13.4505 20.9349 17.8345C20.9349 21.8345 18.1509 25.0025 10.8549 25.0025H7.11087ZM1.76687 11.9145V10.8585H7.11087V12.3305H6.66287L1.76687 11.9145ZM22.3144 34.5385V33.5145L27.2104 33.0345H27.6904L27.6584 34.5385H22.3144ZM25.2904 34.5385C25.3864 30.9545 25.3864 27.2105 25.3864 24.1385V21.9625C25.3864 18.2185 25.3864 14.5065 25.2904 10.8585H30.0264C29.9304 14.5065 29.9304 18.2185 29.9304 21.7705V23.7545C29.9304 27.1465 29.9304 30.8585 30.0264 34.5385H25.2904ZM27.6584 34.5385L27.6904 33.3545H39.2744L37.0344 34.4105L38.6664 27.6905H40.2984L40.2664 34.5385H27.6584ZM22.3144 11.9145V10.8585H33.2264V11.9145L28.2664 12.3305H27.2104L22.3144 11.9145ZM41.1816 34.5385V33.5145L44.3496 33.0665H44.9576L48.4136 33.5145V34.5385H41.1816ZM43.3896 34.5385L51.3576 10.7305H54.1416L62.2696 34.5385H57.6296L50.8776 13.5465H51.5496L51.4536 13.9945L44.9896 34.5385H43.3896ZM46.9416 26.8265L47.1656 25.7705H57.3096L57.5336 26.8265H46.9416ZM53.9176 34.5385V33.4825L58.2376 33.0345H59.8696L64.3176 33.4825V34.5385H53.9176ZM65.1854 34.5385V33.5145L68.5454 33.0345H69.4414L73.8254 33.5145V34.5385H65.1854ZM68.2894 34.5385V11.7225H69.4734L69.8254 26.2185V34.5385H68.2894ZM80.2574 11.9145V10.8585H88.8974V11.9145L85.5374 12.3305H84.7054L80.2574 11.9145ZM83.4254 34.6665L69.1214 13.8665L69.0254 13.7705L67.9694 12.1385L65.2814 11.9145V10.8585H72.3854L85.1534 29.4505L84.5454 29.6745L84.4174 20.1705V10.8585H85.7614V34.6665H83.4254ZM94.8311 34.5385V33.5145L99.8551 33.0345H101.103L106.255 33.5145V34.5385H94.8311ZM98.1591 34.5385C98.2551 30.9545 98.2551 27.2105 98.2551 23.4665V21.9625C98.2551 18.2185 98.2551 14.5385 98.1591 10.8585H102.895C102.799 14.4745 102.799 18.2185 102.799 21.9625V23.4665C102.799 27.1465 102.799 30.8585 102.895 34.5385H98.1591ZM90.1271 17.4825L90.3191 10.8585H110.767L110.927 17.4825H109.263L107.535 10.8585L109.679 12.0745H91.3431L93.5191 10.8585L91.8551 17.4825H90.1271Z" fill="#151823"/>
<path d="M1.45804 55.5385V55.0265L3.90604 54.7865H4.54604L7.04204 55.0265V55.5385H1.45804ZM2.94604 55.5385C2.99404 53.7465 2.99404 51.8745 2.99404 50.0025V49.2505C2.99404 47.3785 2.99404 45.5385 2.94604 43.6985H5.31404C5.26604 45.5065 5.26604 47.3785 5.26604 49.2505V50.3705C5.26604 51.8905 5.26604 53.6985 5.31404 55.5385H2.94604ZM4.13004 50.7705V50.1945H5.93804C7.98604 50.1945 8.89804 48.9625 8.89804 47.1865C8.89804 45.2665 7.97004 44.2745 6.14604 44.2745H4.13004V43.6985H6.19404C9.60204 43.6985 11.042 44.9945 11.042 47.1865C11.042 49.1865 9.65004 50.7705 6.00204 50.7705H4.13004ZM1.45804 44.2265V43.6985H4.13004V44.4345H3.90604L1.45804 44.2265ZM11.6922 55.5385V55.0745L13.1277 54.8715H13.4032L14.9692 55.0745V55.5385H11.6922ZM12.6927 55.5385L16.3032 44.7505H17.5647L21.2477 55.5385H19.1452L16.0857 46.0265H16.3902L16.3467 46.2295L13.4177 55.5385H12.6927ZM14.3022 52.044L14.4037 51.5655H19.0002L19.1017 52.044H14.3022ZM17.4632 55.5385V55.06L19.4207 54.857H20.1602L22.1757 55.06V55.5385H17.4632ZM22.9037 55.5385V55.0745L25.1222 54.857H25.5427L27.7612 55.0745V55.5385H22.9037ZM24.2522 55.5385C24.2957 53.9145 24.2957 52.218 24.2957 50.5215V49.84C24.2957 48.1435 24.2957 46.476 24.2522 44.8085H26.3692C26.3257 46.4615 26.3257 48.1145 26.3257 50.0575V50.4345C26.3257 52.189 26.3257 53.871 26.3692 55.5385H24.2522ZM31.4442 55.7415C30.2407 55.7415 29.6172 55.379 29.4577 54.3785L28.9357 52.218C28.6892 51.0145 28.3267 50.4925 27.1522 50.4925H25.3542V49.9705H27.3842C29.0082 49.9705 29.7477 48.8975 29.7477 47.5635C29.7477 46.1425 28.9502 45.3305 27.3842 45.3305H25.3252V44.8085H27.8627C30.3277 44.8085 31.6907 45.7945 31.6907 47.5345C31.6907 48.8975 30.6467 50.13 27.9062 50.2895V50.13C30.1972 50.246 30.7917 50.971 31.0962 52.4935L31.7632 55.379L30.7482 54.9295L33.0102 55.0745V55.5385C32.5027 55.669 32.0967 55.7415 31.4442 55.7415ZM22.9037 45.287V44.8085H25.3252V45.4755H25.1222L22.9037 45.287ZM33.7929 55.5385V55.0745L36.0114 54.857H36.2144V55.5385H33.7929ZM35.1414 55.5385C35.1849 53.9145 35.1849 52.218 35.1849 50.5215V49.84C35.1849 48.1435 35.1849 46.476 35.1414 44.8085H37.2874C37.2439 46.447 37.2439 48.1435 37.2439 49.927V50.333C37.2439 52.189 37.2439 53.871 37.2874 55.5385H35.1414ZM36.2144 55.5385V55.002H41.7679L40.7239 55.495L41.4344 52.6675H42.1739L42.1594 55.5385H36.2144ZM36.2144 50.333V49.8255H39.7814V50.333H36.2144ZM39.6219 51.7975L39.4044 50.188V49.8835L39.6219 48.2885H40.2744V51.7975H39.6219ZM33.7929 45.287V44.8085H36.2144V45.4755H36.0114L33.7929 45.287ZM41.1299 47.5925L40.4484 44.8375L41.4634 45.3595H36.2144V44.8085H41.8839L41.8984 47.5925H41.1299ZM43.3486 55.5385V55.0745L44.8711 54.857H45.2771L47.2636 55.0745V55.5385H43.3486ZM44.7551 55.5385V45.2H45.2916L45.4511 51.7685V55.5385H44.7551ZM50.1781 45.287V44.8085H54.0931V45.287L52.5706 45.4755H52.1936L50.1781 45.287ZM51.6136 55.5965L45.1321 46.1715L45.0886 46.128L44.6101 45.3885L43.3921 45.287V44.8085H46.6111L52.3966 53.233L52.1211 53.3345L52.0631 49.028V44.8085H52.6721V55.5965H51.6136ZM57.0718 55.5385V55.0745L59.3483 54.857H59.9138L62.2483 55.0745V55.5385H57.0718ZM58.5798 55.5385C58.6233 53.9145 58.6233 52.218 58.6233 50.5215V49.84C58.6233 48.1435 58.6233 46.476 58.5798 44.8085H60.7258C60.6823 46.447 60.6823 48.1435 60.6823 49.84V50.5215C60.6823 52.189 60.6823 53.871 60.7258 55.5385H58.5798ZM54.9403 47.81L55.0273 44.8085H64.2928L64.3653 47.81H63.6113L62.8283 44.8085L63.7998 45.3595H55.4913L56.4773 44.8085L55.7233 47.81H54.9403ZM65.3559 55.5385V55.0745L67.5019 54.857H67.9079L70.1264 55.0745V55.5385H65.3559ZM66.6899 55.5385C66.7189 53.9145 66.7189 52.218 66.7189 50.5215V49.84C66.7189 48.1435 66.7189 46.476 66.6899 44.8085H68.8359C68.7924 46.447 68.7924 48.1435 68.7924 49.84V50.246C68.7924 52.189 68.7924 53.871 68.8359 55.5385H66.6899ZM67.7629 50.304V49.782H74.1719V50.304H67.7629ZM71.7939 55.5385V55.0745L73.9979 54.857H74.3894L76.5789 55.0745V55.5385H71.7939ZM73.0844 55.5385C73.1424 53.9145 73.1424 52.218 73.1424 50.246V49.84C73.1424 48.1435 73.1424 46.476 73.0844 44.8085H75.2449C75.2014 46.447 75.2014 48.1435 75.2014 49.84V50.5215C75.2014 52.189 75.2014 53.871 75.2449 55.5385H73.0844ZM65.3559 45.287V44.8085H70.1264V45.287L67.9079 45.4755H67.5019L65.3559 45.287ZM71.7939 45.287V44.8085H76.5789V45.287L74.3894 45.4755H73.9979L71.7939 45.287ZM82.7067 55.814C80.0387 55.814 77.7042 53.8565 77.7042 50.1735C77.7042 46.534 80.0387 44.533 82.7067 44.533C85.3892 44.533 87.7092 46.505 87.7092 50.1735C87.7092 53.8275 85.4037 55.814 82.7067 55.814ZM82.7067 55.2775C84.6352 55.2775 85.5487 53.0735 85.5487 50.1735C85.5487 47.288 84.6352 45.0695 82.7067 45.0695C80.7927 45.0695 79.8647 47.288 79.8647 50.1735C79.8647 53.0735 80.7927 55.2775 82.7067 55.2775ZM94.3322 55.814C91.6642 55.814 89.3297 53.8565 89.3297 50.1735C89.3297 46.534 91.6642 44.533 94.3322 44.533C97.0147 44.533 99.3347 46.505 99.3347 50.1735C99.3347 53.8275 97.0292 55.814 94.3322 55.814ZM94.3322 55.2775C96.2607 55.2775 97.1742 53.0735 97.1742 50.1735C97.1742 47.288 96.2607 45.0695 94.3322 45.0695C92.4182 45.0695 91.4902 47.288 91.4902 50.1735C91.4902 53.0735 92.4182 55.2775 94.3322 55.2775ZM100.473 55.5385V55.0745L102.692 54.857H102.895V55.5385H100.473ZM101.822 55.5385C101.865 53.9145 101.865 52.218 101.865 50.333V49.8835C101.865 48.1435 101.865 46.476 101.822 44.8085H103.968C103.924 46.447 103.924 48.1435 103.924 49.8835V50.333C103.924 52.189 103.924 53.871 103.968 55.5385H101.822ZM102.895 55.5385V55.031H104.78C107.129 55.031 108.434 53.2185 108.434 50.1735C108.434 47.0125 107.129 45.3305 104.867 45.3305H102.895V44.8085H105.07C108.521 44.8085 110.565 46.8095 110.565 50.159C110.565 53.494 108.405 55.5385 104.838 55.5385H102.895ZM100.473 45.287V44.8085H102.895V45.4755H102.692L100.473 45.287Z" fill="#151823"/>
</svg>
