<svg width="25" height="24" viewBox="0 0 25 24" fill="none" xmlns="http://www.w3.org/2000/svg">
<path d="M20.6508 4.36056C19.0946 3.64634 17.4524 3.13661 15.7653 2.84406C15.75 2.84149 15.7343 2.84371 15.7203 2.85042C15.7064 2.85714 15.6948 2.86802 15.6873 2.88156C15.4758 3.25656 15.2418 3.74706 15.0783 4.13106C13.2597 3.85507 11.4099 3.85507 9.59129 4.13106C9.40892 3.70329 9.20259 3.28612 8.97329 2.88156C8.9656 2.86816 8.95403 2.85741 8.9401 2.85072C8.92618 2.84403 8.91056 2.8417 8.89529 2.84406C7.20789 3.13542 5.56559 3.6452 4.00979 4.36056C3.99648 4.36564 3.98535 4.37518 3.97829 4.38756C0.867292 9.03606 0.0137917 13.5706 0.432292 18.0481C0.433792 18.0691 0.447292 18.0901 0.463792 18.1036C2.27539 19.4455 4.30169 20.47 6.45629 21.1336C6.4715 21.1384 6.48785 21.1382 6.50296 21.1331C6.51806 21.1279 6.53114 21.1181 6.54029 21.1051C7.00229 20.4751 7.41329 19.8106 7.76729 19.1116C7.77218 19.102 7.77496 19.0915 7.77546 19.0808C7.77596 19.0701 7.77416 19.0595 7.77018 19.0495C7.7662 19.0396 7.76013 19.0306 7.75239 19.0232C7.74465 19.0158 7.73541 19.0101 7.72529 19.0066C7.07904 18.7582 6.45314 18.4598 5.85329 18.1141C5.84233 18.1077 5.83312 18.0988 5.82648 18.088C5.81983 18.0772 5.81596 18.065 5.81522 18.0523C5.81448 18.0397 5.81688 18.0271 5.82222 18.0156C5.82755 18.0041 5.83565 17.9941 5.84579 17.9866C5.97179 17.8921 6.09779 17.7931 6.21779 17.6941C6.22839 17.6855 6.24111 17.6801 6.25459 17.6782C6.26806 17.6764 6.28179 17.6782 6.29429 17.6836C10.2228 19.4776 14.4753 19.4776 18.3558 17.6836C18.3687 17.6778 18.383 17.6757 18.397 17.6776C18.4111 17.6794 18.4243 17.6851 18.4353 17.6941C18.5553 17.7931 18.6813 17.8921 18.8073 17.9866C18.8175 17.994 18.8257 18.0039 18.8312 18.0153C18.8366 18.0267 18.8392 18.0393 18.8386 18.0519C18.838 18.0646 18.8343 18.0768 18.8278 18.0877C18.8213 18.0985 18.8122 18.1076 18.8013 18.1141C18.2028 18.4629 17.5761 18.7609 16.9278 19.0051C16.9178 19.0089 16.9087 19.0149 16.9011 19.0225C16.8935 19.0301 16.8876 19.0392 16.8838 19.0493C16.8799 19.0593 16.8783 19.0701 16.8789 19.0808C16.8795 19.0915 16.8824 19.102 16.8873 19.1116C17.2473 19.8091 17.6598 20.4751 18.1128 21.1051C18.1219 21.1181 18.135 21.1279 18.1501 21.1331C18.1652 21.1382 18.1816 21.1384 18.1968 21.1336C20.355 20.4721 22.3846 19.4474 24.1983 18.1036C24.2073 18.0972 24.2148 18.0889 24.2202 18.0793C24.2257 18.0697 24.2289 18.0591 24.2298 18.0481C24.7308 12.8716 23.3913 8.37456 20.6808 4.38906C20.6781 4.38248 20.674 4.37654 20.6688 4.37163C20.6636 4.36672 20.6575 4.36295 20.6508 4.36056ZM8.35379 15.3211C7.17029 15.3211 6.19679 14.2351 6.19679 12.9031C6.19679 11.5696 7.15229 10.4836 8.35379 10.4836C9.56429 10.4836 10.5288 11.5786 10.5108 12.9031C10.5108 14.2351 9.55529 15.3211 8.35379 15.3211ZM16.3278 15.3211C15.1458 15.3211 14.1708 14.2351 14.1708 12.9031C14.1708 11.5696 15.1263 10.4836 16.3278 10.4836C17.5383 10.4836 18.5043 11.5786 18.4848 12.9031C18.4848 14.2351 17.5383 15.3211 16.3278 15.3211Z" fill="#D1D2D4"/>
</svg>
