<svg width="18" height="16" viewBox="0 0 18 16" fill="none" xmlns="http://www.w3.org/2000/svg">
<path d="M9 6.16878L8.10557 4.36572C7.884 3.91905 7.49875 3.27645 6.95408 2.75764C6.41783 2.24684 5.77649 1.89907 5 1.89907C3.324 1.89907 2 3.23588 2 4.84226C2 6.06295 2.55373 6.92443 3.86822 8.23904C4.20476 8.57561 4.58935 8.9394 5.01356 9.34068C6.12195 10.3892 7.50087 11.6935 9 13.4366C10.4991 11.6935 11.878 10.3892 12.9864 9.34068C13.4107 8.9394 13.7952 8.57561 14.1318 8.23904C15.4463 6.92443 16 6.06295 16 4.84226C16 3.23588 14.676 1.89907 13 1.89907C12.2235 1.89907 11.5822 2.24684 11.0459 2.75764C10.5012 3.27645 10.116 3.91905 9.89443 4.36572L9 6.16878ZM9.39151 14.5264C9.18771 14.7703 8.81229 14.7703 8.60849 14.5264C7.00693 12.6096 5.55819 11.2391 4.36507 10.1105C2.29947 8.15648 1 6.92723 1 4.84226C1 2.66011 2.79086 0.891128 5 0.891128C6.60015 0.891128 7.71852 1.94878 8.40353 2.91494C8.66423 3.28264 8.86217 3.6371 9 3.91495C9.13783 3.6371 9.33577 3.28264 9.59647 2.91494C10.2815 1.94878 11.3998 0.891128 13 0.891128C15.2091 0.891128 17 2.66011 17 4.84226C17 6.92723 15.7005 8.15648 13.6349 10.1105C12.4418 11.2391 10.9931 12.6096 9.39151 14.5264Z" fill="#151823" stroke="#151823" stroke-width="0.5"/>
</svg>
