<svg width="20" height="20" viewBox="0 0 20 20" fill="none" xmlns="http://www.w3.org/2000/svg">
<path d="M3.71339 1.69045C3.95087 1.41339 4.29755 1.25394 4.66246 1.25394H15.3375C15.7024 1.25394 16.0491 1.41339 16.2866 1.69045L19.5486 5.49611C19.8399 5.83594 20 6.26876 20 6.71634V7.03519C20 8.67478 18.6708 10.0039 17.0312 10.0039C16.0786 10.0039 15.2307 9.55521 14.6875 8.85758C14.1443 9.55521 13.2964 10.0039 12.3438 10.0039C11.3911 10.0039 10.5432 9.55521 10 8.85758C9.45678 9.55521 8.60892 10.0039 7.65625 10.0039C6.70358 10.0039 5.85572 9.55521 5.3125 8.85758C4.76928 9.55521 3.92142 10.0039 2.96875 10.0039C1.32915 10.0039 0 8.67478 0 7.03519V6.71634C0 6.26876 0.16011 5.83594 0.451394 5.49611L3.71339 1.69045ZM5.9375 7.03519C5.9375 7.98443 6.70701 8.75394 7.65625 8.75394C8.60549 8.75394 9.375 7.98443 9.375 7.03519C9.375 6.69001 9.65482 6.41019 10 6.41019C10.3452 6.41019 10.625 6.69001 10.625 7.03519C10.625 7.98443 11.3945 8.75394 12.3438 8.75394C13.293 8.75394 14.0625 7.98443 14.0625 7.03519C14.0625 6.69001 14.3423 6.41019 14.6875 6.41019C15.0327 6.41019 15.3125 6.69001 15.3125 7.03519C15.3125 7.98443 16.082 8.75394 17.0312 8.75394C17.9805 8.75394 18.75 7.98443 18.75 7.03519V6.71634C18.75 6.56715 18.6966 6.42287 18.5995 6.3096L15.3375 2.50394H4.66246L1.40046 6.3096C1.30337 6.42287 1.25 6.56715 1.25 6.71634V7.03519C1.25 7.98443 2.01951 8.75394 2.96875 8.75394C3.91799 8.75394 4.6875 7.98443 4.6875 7.03519C4.6875 6.69001 4.96732 6.41019 5.3125 6.41019C5.65768 6.41019 5.9375 6.69001 5.9375 7.03519ZM1.875 10.6289C2.22018 10.6289 2.5 10.9088 2.5 11.2539V18.7539H3.75V12.5039C3.75 11.8136 4.30964 11.2539 5 11.2539H8.75C9.44036 11.2539 10 11.8136 10 12.5039V18.7539H17.5V11.2539C17.5 10.9088 17.7798 10.6289 18.125 10.6289C18.4702 10.6289 18.75 10.9088 18.75 11.2539V18.7539H19.375C19.7202 18.7539 20 19.0338 20 19.3789C20 19.7241 19.7202 20.0039 19.375 20.0039H0.625C0.279822 20.0039 0 19.7241 0 19.3789C0 19.0338 0.279822 18.7539 0.625 18.7539H1.25V11.2539C1.25 10.9088 1.52982 10.6289 1.875 10.6289ZM5 18.7539H8.75V12.5039H5V18.7539ZM11.25 12.5039C11.25 11.8136 11.8096 11.2539 12.5 11.2539H15C15.6904 11.2539 16.25 11.8136 16.25 12.5039V16.2539C16.25 16.9443 15.6904 17.5039 15 17.5039H12.5C11.8096 17.5039 11.25 16.9443 11.25 16.2539V12.5039ZM15 12.5039H12.5V16.2539H15V12.5039Z" fill="black"/>
</svg>
