<svg width="25" height="24" viewBox="0 0 25 24" fill="none" xmlns="http://www.w3.org/2000/svg">
<path d="M12.3345 0C9.07542 0 8.66642 0.0142504 7.3864 0.072501C6.10889 0.131002 5.23688 0.333254 4.47387 0.630007C3.68461 0.93651 3.01511 1.34651 2.3481 2.01377C1.68059 2.68078 1.27059 3.35028 0.963085 4.13929C0.665581 4.90255 0.463079 5.77481 0.405579 7.05182C0.348328 8.33184 0.333328 8.74109 0.333328 12.0001C0.333328 15.2592 0.347829 15.6669 0.405829 16.9469C0.46458 18.2244 0.666832 19.0964 0.963335 19.8595C1.27009 20.6487 1.68009 21.3182 2.34735 21.9852C3.01411 22.6527 3.68361 23.0637 4.47237 23.3702C5.23588 23.667 6.10814 23.8692 7.3854 23.9277C8.66541 23.986 9.07417 24.0002 12.333 24.0002C15.5922 24.0002 16 23.986 17.28 23.9277C18.5575 23.8692 19.4305 23.667 20.194 23.3702C20.983 23.0637 21.6516 22.6527 22.3183 21.9852C22.9858 21.3182 23.3958 20.6487 23.7033 19.8597C23.9983 19.0964 24.2008 18.2242 24.2608 16.9472C24.3183 15.6672 24.3333 15.2592 24.3333 12.0001C24.3333 8.74109 24.3183 8.33209 24.2608 7.05207C24.2008 5.77456 23.9983 4.90255 23.7033 4.13954C23.3958 3.35028 22.9858 2.68078 22.3183 2.01377C21.6508 1.34626 20.9833 0.93626 20.1933 0.630007C19.4283 0.333254 18.5558 0.131002 17.2783 0.072501C15.9982 0.0142504 15.5907 0 12.3307 0H12.3345ZM11.2579 2.16252C11.5774 2.16202 11.9339 2.16252 12.3345 2.16252C15.5385 2.16252 15.9182 2.17402 17.1835 2.23152C18.3535 2.28502 18.9885 2.48053 19.4115 2.64478C19.9715 2.86228 20.3708 3.12228 20.7905 3.54229C21.2105 3.96229 21.4705 4.3623 21.6885 4.9223C21.8528 5.34481 22.0486 5.97981 22.1018 7.14982C22.1593 8.41484 22.1718 8.79484 22.1718 11.9974C22.1718 15.1999 22.1593 15.5799 22.1018 16.8449C22.0483 18.0149 21.8528 18.6499 21.6885 19.0724C21.471 19.6325 21.2105 20.0312 20.7905 20.451C20.3705 20.871 19.9718 21.131 19.4115 21.3485C18.989 21.5135 18.3535 21.7085 17.1835 21.762C15.9185 21.8195 15.5385 21.832 12.3345 21.832C9.13017 21.832 8.75042 21.8195 7.4854 21.762C6.31539 21.708 5.68038 21.5125 5.25713 21.3482C4.69712 21.1307 4.29712 20.8707 3.87711 20.4507C3.45711 20.0307 3.19711 19.6317 2.97911 19.0714C2.81485 18.6489 2.6191 18.0139 2.56585 16.8439C2.50835 15.5789 2.49685 15.1989 2.49685 11.9944C2.49685 8.78984 2.50835 8.41184 2.56585 7.14682C2.61935 5.97681 2.81485 5.3418 2.97911 4.9188C3.19661 4.3588 3.45711 3.95879 3.87711 3.53879C4.29712 3.11878 4.69712 2.85878 5.25713 2.64078C5.68013 2.47578 6.31539 2.28077 7.4854 2.22702C8.59241 2.17702 9.02142 2.16202 11.2579 2.15952V2.16252ZM18.74 4.15504C17.945 4.15504 17.3 4.7993 17.3 5.59456C17.3 6.38957 17.945 7.03457 18.74 7.03457C19.535 7.03457 20.18 6.38957 20.18 5.59456C20.18 4.79955 19.535 4.15454 18.74 4.15454V4.15504ZM12.3345 5.83756C8.93117 5.83756 6.17189 8.59684 6.17189 12.0001C6.17189 15.4034 8.93117 18.1614 12.3345 18.1614C15.7377 18.1614 18.496 15.4034 18.496 12.0001C18.496 8.59684 15.7375 5.83756 12.3342 5.83756H12.3345ZM12.3345 8.00008C14.5435 8.00008 16.3345 9.79085 16.3345 12.0001C16.3345 14.2091 14.5435 16.0002 12.3345 16.0002C10.1252 16.0002 8.33441 14.2091 8.33441 12.0001C8.33441 9.79085 10.1252 8.00008 12.3345 8.00008Z" fill="#D1D2D4"/>
</svg>
