<svg width="24" height="24" viewBox="0 0 24 24" fill="none" xmlns="http://www.w3.org/2000/svg">
<path d="M-3.05176e-05 1.71921C-3.05176e-05 0.76997 0.788988 0 1.76234 0H22.2376C23.2109 0 24 0.769972 24 1.71921V22.2808C24 23.2303 23.2109 24 22.2376 24L1.76234 24C0.788988 24 -3.05176e-05 23.2303 -3.05176e-05 22.2808V1.71921ZM7.41504 20.0905V9.25314H3.81291V20.0905H7.41504ZM5.61396 7.77349C6.87009 7.77349 7.65193 6.9413 7.65193 5.90131C7.62852 4.8379 6.8701 4.02881 5.63779 4.02881C4.40561 4.02881 3.59997 4.8379 3.59997 5.90131C3.59997 6.9413 4.38164 7.77349 5.59048 7.77349H5.61396ZM12.9771 20.0905V14.0385C12.9771 13.7146 13.0005 13.391 13.0956 13.1594C13.356 12.5123 13.9487 11.8421 14.9438 11.8421C16.2472 11.8421 16.7686 12.8359 16.7686 14.2928V20.0905H20.3704V13.8765C20.3704 10.5478 18.5933 8.99884 16.2234 8.99884C14.3126 8.99884 13.4559 10.049 12.9772 10.7875V10.8248H12.9531C12.961 10.8125 12.969 10.8 12.9772 10.7875V9.25314H9.37507C9.42234 10.27 9.37507 20.0905 9.37507 20.0905H12.9771Z" fill="#D1D2D4"/>
</svg>
