<svg width="176" height="62" viewBox="0 0 176 62" fill="none" xmlns="http://www.w3.org/2000/svg">
<path d="M47.08 26V25.232L50.752 24.872H51.712L55.456 25.232V26H47.08ZM49.312 26C49.384 23.312 49.384 20.504 49.384 17.696V16.568C49.384 13.76 49.384 11 49.312 8.24H52.864C52.792 10.952 52.792 13.76 52.792 16.568V18.248C52.792 20.528 52.792 23.24 52.864 26H49.312ZM51.088 18.848V17.984H53.8C56.872 17.984 58.24 16.136 58.24 13.472C58.24 10.592 56.848 9.104 54.112 9.104H51.088V8.24H54.184C59.296 8.24 61.456 10.184 61.456 13.472C61.456 16.472 59.368 18.848 53.896 18.848H51.088ZM47.08 9.032V8.24H51.088V9.344H50.752L47.08 9.032ZM62.6106 26V25.232L66.2826 24.872H66.6426L66.6186 26H62.6106ZM64.8426 26C64.9146 23.312 64.9146 20.504 64.9146 18.2V16.568C64.9146 13.76 64.9146 10.976 64.8426 8.24H68.3946C68.3226 10.976 68.3226 13.76 68.3226 16.424V17.912C68.3226 20.456 68.3226 23.24 68.3946 26H64.8426ZM66.6186 26L66.6426 25.112H75.3306L73.6506 25.904L74.8746 20.864H76.0986L76.0746 26H66.6186ZM62.6106 9.032V8.24H70.7946V9.032L67.0746 9.344H66.2826L62.6106 9.032ZM76.8811 26V25.232L79.2571 24.896H79.7131L82.3051 25.232V26H76.8811ZM78.5371 26L84.5131 8.144H86.6011L92.6971 26H89.2171L84.1531 10.256H84.6571L84.5851 10.592L79.7371 26H78.5371ZM81.2011 20.216L81.3691 19.424H88.9771L89.1451 20.216H81.2011ZM86.4331 26V25.208L89.6731 24.872H90.8971L94.2331 25.208V26H86.4331ZM95.0039 26V25.232L97.5239 24.872H98.1959L101.484 25.232V26H95.0039ZM97.3319 26V8.888H98.2199L98.4839 19.76V26H97.3319ZM106.308 9.032V8.24H112.788V9.032L110.268 9.344H109.644L106.308 9.032ZM108.684 26.096L97.9559 10.496L97.8839 10.424L97.0919 9.2L95.0759 9.032V8.24H100.404L109.98 22.184L109.524 22.352L109.428 15.224V8.24H110.436V26.096H108.684ZM117.358 26V25.232L121.126 24.872H122.062L125.926 25.232V26H117.358ZM119.854 26C119.926 23.312 119.926 20.504 119.926 17.696V16.568C119.926 13.76 119.926 11 119.854 8.24H123.406C123.334 10.952 123.334 13.76 123.334 16.568V17.696C123.334 20.456 123.334 23.24 123.406 26H119.854ZM113.83 13.208L113.974 8.24H129.31L129.43 13.208H128.182L126.886 8.24L128.494 9.152H114.742L116.374 8.24L115.126 13.208H113.83Z" fill="white"/>
<path d="M1.14532 57V56.232L4.81732 55.872H5.77732L9.52132 56.232V57H1.14532ZM3.37732 57C3.44932 54.312 3.44932 51.504 3.44932 48.696V47.568C3.44932 44.76 3.44932 42 3.37732 39.24H6.92932C6.85732 41.952 6.85732 44.76 6.85732 47.568V49.248C6.85732 51.528 6.85732 54.24 6.92932 57H3.37732ZM5.15332 49.848V48.984H7.86532C10.9373 48.984 12.3053 47.136 12.3053 44.472C12.3053 41.592 10.9133 40.104 8.17732 40.104H5.15332V39.24H8.24932C13.3613 39.24 15.5213 41.184 15.5213 44.472C15.5213 47.472 13.4333 49.848 7.96132 49.848H5.15332ZM1.14532 40.032V39.24H5.15332V40.344H4.81732L1.14532 40.032ZM14.0095 57V56.232L16.3855 55.896H16.8415L19.4335 56.232V57H14.0095ZM15.6655 57L21.6415 39.144H23.7295L29.8255 57H26.3455L21.2815 41.256H21.7855L21.7135 41.592L16.8655 57H15.6655ZM18.3295 51.216L18.4975 50.424H26.1055L26.2735 51.216H18.3295ZM23.5615 57V56.208L26.8015 55.872H28.0255L31.3615 56.208V57H23.5615ZM32.2066 57V56.232L35.8786 55.872H36.5746L40.2466 56.232V57H32.2066ZM34.4386 57C34.5106 54.312 34.5106 51.504 34.5106 48.696V47.568C34.5106 44.76 34.5106 42 34.4386 39.24H37.9426C37.8706 41.976 37.8706 44.712 37.8706 47.928V48.552C37.8706 51.456 37.8706 54.24 37.9426 57H34.4386ZM46.3426 57.336C44.3506 57.336 43.3186 56.736 43.0546 55.08L42.1906 51.504C41.7826 49.512 41.1826 48.648 39.2386 48.648H36.2626V47.784H39.6226C42.3106 47.784 43.5346 46.008 43.5346 43.8C43.5346 41.448 42.2146 40.104 39.6226 40.104H36.2146V39.24H40.4146C44.4946 39.24 46.7506 40.872 46.7506 43.752C46.7506 46.008 45.0226 48.048 40.4866 48.312V48.048C44.2786 48.24 45.2626 49.44 45.7666 51.96L46.8706 56.736L45.1906 55.992L48.9346 56.232V57C48.0946 57.216 47.4226 57.336 46.3426 57.336ZM32.2066 40.032V39.24H36.2146V40.344H35.8786L32.2066 40.032ZM49.87 57V56.232L53.542 55.872H53.878V57H49.87ZM52.102 57C52.174 54.312 52.174 51.504 52.174 48.696V47.568C52.174 44.76 52.174 42 52.102 39.24H55.654C55.582 41.952 55.582 44.76 55.582 47.712V48.384C55.582 51.456 55.582 54.24 55.654 57H52.102ZM53.878 57V56.112H63.07L61.342 56.928L62.518 52.248H63.742L63.718 57H53.878ZM53.878 48.384V47.544H59.782V48.384H53.878ZM59.518 50.808L59.158 48.144V47.64L59.518 45H60.598V50.808H59.518ZM49.87 40.032V39.24H53.878V40.344H53.542L49.87 40.032ZM62.014 43.848L60.886 39.288L62.566 40.152H53.878V39.24H63.262L63.286 43.848H62.014ZM65.3264 57V56.232L67.8464 55.872H68.5184L71.8064 56.232V57H65.3264ZM67.6544 57V39.888H68.5424L68.8064 50.76V57H67.6544ZM76.6304 40.032V39.24H83.1104V40.032L80.5904 40.344H79.9664L76.6304 40.032ZM79.0064 57.096L68.2784 41.496L68.2064 41.424L67.4144 40.2L65.3984 40.032V39.24H70.7264L80.3024 53.184L79.8464 53.352L79.7504 46.224V39.24H80.7584V57.096H79.0064ZM87.6807 57V56.232L91.4487 55.872H92.3847L96.2487 56.232V57H87.6807ZM90.1767 57C90.2487 54.312 90.2487 51.504 90.2487 48.696V47.568C90.2487 44.76 90.2487 42 90.1767 39.24H93.7287C93.6567 41.952 93.6567 44.76 93.6567 47.568V48.696C93.6567 51.456 93.6567 54.24 93.7287 57H90.1767ZM84.1527 44.208L84.2967 39.24H99.6327L99.7527 44.208H98.5047L97.2087 39.24L98.8167 40.152H85.0647L86.6967 39.24L85.4487 44.208H84.1527ZM101.032 57V56.232L104.584 55.872H105.256L108.928 56.232V57H101.032ZM103.24 57C103.288 54.312 103.288 51.504 103.288 48.696V47.568C103.288 44.76 103.288 42 103.24 39.24H106.792C106.72 41.952 106.72 44.76 106.72 47.568V48.24C106.72 51.456 106.72 54.24 106.792 57H103.24ZM105.016 48.336V47.472H115.624V48.336H105.016ZM111.688 57V56.232L115.336 55.872H115.984L119.608 56.232V57H111.688ZM113.824 57C113.92 54.312 113.92 51.504 113.92 48.24V47.568C113.92 44.76 113.92 42 113.824 39.24H117.4C117.328 41.952 117.328 44.76 117.328 47.568V48.696C117.328 51.456 117.328 54.24 117.4 57H113.824ZM101.032 40.032V39.24H108.928V40.032L105.256 40.344H104.584L101.032 40.032ZM111.688 40.032V39.24H119.608V40.032L115.984 40.344H115.336L111.688 40.032ZM129.391 57.456C124.975 57.456 121.111 54.216 121.111 48.12C121.111 42.096 124.975 38.784 129.391 38.784C133.831 38.784 137.671 42.048 137.671 48.12C137.671 54.168 133.855 57.456 129.391 57.456ZM129.391 56.568C132.583 56.568 134.095 52.92 134.095 48.12C134.095 43.344 132.583 39.672 129.391 39.672C126.223 39.672 124.687 43.344 124.687 48.12C124.687 52.92 126.223 56.568 129.391 56.568ZM148.273 57.456C143.857 57.456 139.993 54.216 139.993 48.12C139.993 42.096 143.857 38.784 148.273 38.784C152.713 38.784 156.553 42.048 156.553 48.12C156.553 54.168 152.737 57.456 148.273 57.456ZM148.273 56.568C151.465 56.568 152.977 52.92 152.977 48.12C152.977 43.344 151.465 39.672 148.273 39.672C145.105 39.672 143.569 43.344 143.569 48.12C143.569 52.92 145.105 56.568 148.273 56.568ZM158.077 57V56.232L161.749 55.872H162.085V57H158.077ZM160.309 57C160.381 54.312 160.381 51.504 160.381 48.384V47.64C160.381 44.76 160.381 42 160.309 39.24H163.861C163.789 41.952 163.789 44.76 163.789 47.64V48.384C163.789 51.456 163.789 54.24 163.861 57H160.309ZM162.085 57V56.16H165.205C169.093 56.16 171.253 53.16 171.253 48.12C171.253 42.888 169.093 40.104 165.349 40.104H162.085V39.24H165.685C171.397 39.24 174.781 42.552 174.781 48.096C174.781 53.616 171.205 57 165.301 57H162.085ZM158.077 40.032V39.24H162.085V40.344H161.749L158.077 40.032Z" fill="white"/>
</svg>
