<svg width="97" height="39" viewBox="0 0 97 39" fill="none" xmlns="http://www.w3.org/2000/svg">
<path d="M0.546021 21V20.104L4.83002 19.684H5.95002L10.318 20.104V21H0.546021ZM3.15002 21C3.23402 17.864 3.23402 14.588 3.23402 11.312V9.996C3.23402 6.72 3.23402 3.5 3.15002 0.279999H7.29402C7.21002 3.444 7.21002 6.72 7.21002 9.996V11.956C7.21002 14.616 7.21002 17.78 7.29402 21H3.15002ZM5.22202 12.656V11.648H8.38602C11.97 11.648 13.566 9.492 13.566 6.384C13.566 3.024 11.942 1.288 8.75002 1.288H5.22202V0.279999H8.83402C14.798 0.279999 17.318 2.548 17.318 6.384C17.318 9.884 14.882 12.656 8.49802 12.656H5.22202ZM0.546021 1.204V0.279999H5.22202V1.568H4.83002L0.546021 1.204Z" fill="white"/>
<path d="M18.5251 21V20.104L22.8091 19.684H23.2291L23.2011 21H18.5251ZM21.1291 21C21.2131 17.864 21.2131 14.588 21.2131 11.9V9.996C21.2131 6.72 21.2131 3.472 21.1291 0.279999H25.2731C25.1891 3.472 25.1891 6.72 25.1891 9.828V11.564C25.1891 14.532 25.1891 17.78 25.2731 21H21.1291ZM23.2011 21L23.2291 19.964H33.3651L31.4051 20.888L32.8331 15.008H34.2611L34.2331 21H23.2011ZM18.5251 1.204V0.279999H28.0731V1.204L23.7331 1.568H22.8091L18.5251 1.204Z" fill="white"/>
<path d="M35.0339 21V20.104L37.8059 19.712H38.3379L41.3619 20.104V21H35.0339ZM36.9659 21L43.9379 0.167999H46.3739L53.4859 21H49.4259L43.5179 2.632H44.1059L44.0219 3.024L38.3659 21H36.9659ZM40.0739 14.252L40.2699 13.328H49.1459L49.3419 14.252H40.0739ZM46.1779 21V20.076L49.9579 19.684H51.3859L55.2779 20.076V21H46.1779Z" fill="white"/>
<path d="M56.0372 21V20.104L58.9772 19.684H59.7612L63.5972 20.104V21H56.0372ZM58.7532 21V1.036H59.7892L60.0972 13.72V21H58.7532ZM69.2252 1.204V0.279999H76.7852V1.204L73.8452 1.568H73.1172L69.2252 1.204ZM71.9972 21.112L59.4812 2.912L59.3972 2.828L58.4732 1.4L56.1212 1.204V0.279999H62.3372L73.5092 16.548L72.9772 16.744L72.8652 8.428V0.279999H74.0412V21.112H71.9972Z" fill="white"/>
<path d="M81.9772 21V20.104L86.3732 19.684H87.4652L91.9732 20.104V21H81.9772ZM84.8892 21C84.9732 17.864 84.9732 14.588 84.9732 11.312V9.996C84.9732 6.72 84.9732 3.5 84.8892 0.279999H89.0332C88.9492 3.444 88.9492 6.72 88.9492 9.996V11.312C88.9492 14.532 88.9492 17.78 89.0332 21H84.8892ZM77.8612 6.076L78.0292 0.279999H95.9212L96.0612 6.076H94.6052L93.0932 0.279999L94.9692 1.344H78.9252L80.8292 0.279999L79.3732 6.076H77.8612Z" fill="white"/>
<path d="M0.0762177 38V37.584L2.06522 37.389H2.58522L4.61322 37.584V38H0.0762177ZM1.28522 38C1.32422 36.544 1.32422 35.023 1.32422 33.502V32.891C1.32422 31.37 1.32422 29.875 1.28522 28.38H3.20922C3.17022 29.849 3.17022 31.37 3.17022 32.891V33.801C3.17022 35.036 3.17022 36.505 3.20922 38H1.28522ZM2.24722 34.126V33.658H3.71622C5.38022 33.658 6.12122 32.657 6.12122 31.214C6.12122 29.654 5.36722 28.848 3.88522 28.848H2.24722V28.38H3.92422C6.69322 28.38 7.86322 29.433 7.86322 31.214C7.86322 32.839 6.73222 34.126 3.76822 34.126H2.24722ZM0.0762177 28.809V28.38H2.24722V28.978H2.06522L0.0762177 28.809Z" fill="white"/>
<path d="M7.23932 38V37.584L8.52632 37.402H8.77332L10.1773 37.584V38H7.23932ZM8.13632 38L11.3733 28.328H12.5043L15.8063 38H13.9213L11.1783 29.472H11.4513L11.4123 29.654L8.78632 38H8.13632ZM9.57932 34.867L9.67032 34.438H13.7913L13.8823 34.867H9.57932ZM12.4133 38V37.571L14.1683 37.389H14.8313L16.6383 37.571V38H12.4133Z" fill="white"/>
<path d="M17.2911 38V37.584L19.2801 37.389H19.6571L21.6461 37.584V38H17.2911ZM18.5001 38C18.5391 36.544 18.5391 35.023 18.5391 33.502V32.891C18.5391 31.37 18.5391 29.875 18.5001 28.38H20.3981C20.3591 29.862 20.3591 31.344 20.3591 33.086V33.424C20.3591 34.997 20.3591 36.505 20.3981 38H18.5001ZM24.9481 38.182C23.8691 38.182 23.3101 37.857 23.1671 36.96L22.6991 35.023C22.4781 33.944 22.1531 33.476 21.1001 33.476H19.4881V33.008H21.3081C22.7641 33.008 23.4271 32.046 23.4271 30.85C23.4271 29.576 22.7121 28.848 21.3081 28.848H19.4621V28.38H21.7371C23.9471 28.38 25.1691 29.264 25.1691 30.824C25.1691 32.046 24.2331 33.151 21.7761 33.294V33.151C23.8301 33.255 24.3631 33.905 24.6361 35.27L25.2341 37.857L24.3241 37.454L26.3521 37.584V38C25.8971 38.117 25.5331 38.182 24.9481 38.182ZM17.2911 28.809V28.38H19.4621V28.978H19.2801L17.2911 28.809Z" fill="white"/>
<path d="M27.0538 38V37.584L29.0428 37.389H29.2248V38H27.0538ZM28.2628 38C28.3018 36.544 28.3018 35.023 28.3018 33.502V32.891C28.3018 31.37 28.3018 29.875 28.2628 28.38H30.1868C30.1478 29.849 30.1478 31.37 30.1478 32.969V33.333C30.1478 34.997 30.1478 36.505 30.1868 38H28.2628ZM29.2248 38V37.519H34.2038L33.2678 37.961L33.9048 35.426H34.5678L34.5548 38H29.2248ZM29.2248 33.333V32.878H32.4228V33.333H29.2248ZM32.2798 34.646L32.0848 33.203V32.93L32.2798 31.5H32.8648V34.646H32.2798ZM27.0538 28.809V28.38H29.2248V28.978H29.0428L27.0538 28.809ZM33.6318 30.876L33.0208 28.406L33.9308 28.874H29.2248V28.38H34.3078L34.3208 30.876H33.6318Z" fill="white"/>
<path d="M35.621 38V37.584L36.986 37.389H37.35L39.131 37.584V38H35.621ZM36.882 38V28.731H37.363L37.506 34.62V38H36.882ZM41.744 28.809V28.38H45.254V28.809L43.889 28.978H43.551L41.744 28.809ZM43.031 38.052L37.22 29.602L37.181 29.563L36.752 28.9L35.66 28.809V28.38H38.546L43.733 35.933L43.486 36.024L43.434 32.163V28.38H43.98V38.052H43.031Z" fill="white"/>
<path d="M47.9245 38V37.584L49.9655 37.389H50.4725L52.5655 37.584V38H47.9245ZM49.2765 38C49.3155 36.544 49.3155 35.023 49.3155 33.502V32.891C49.3155 31.37 49.3155 29.875 49.2765 28.38H51.2005C51.1615 29.849 51.1615 31.37 51.1615 32.891V33.502C51.1615 34.997 51.1615 36.505 51.2005 38H49.2765ZM46.0135 31.071L46.0915 28.38H54.3985L54.4635 31.071H53.7875L53.0855 28.38L53.9565 28.874H46.5075L47.3915 28.38L46.7155 31.071H46.0135Z" fill="white"/>
<path d="M55.3516 38V37.584L57.2756 37.389H57.6396L59.6286 37.584V38H55.3516ZM56.5476 38C56.5736 36.544 56.5736 35.023 56.5736 33.502V32.891C56.5736 31.37 56.5736 29.875 56.5476 28.38H58.4716C58.4326 29.849 58.4326 31.37 58.4326 32.891V33.255C58.4326 34.997 58.4326 36.505 58.4716 38H56.5476ZM57.5096 33.307V32.839H63.2556V33.307H57.5096ZM61.1236 38V37.584L63.0996 37.389H63.4506L65.4136 37.584V38H61.1236ZM62.2806 38C62.3326 36.544 62.3326 35.023 62.3326 33.255V32.891C62.3326 31.37 62.3326 29.875 62.2806 28.38H64.2176C64.1786 29.849 64.1786 31.37 64.1786 32.891V33.502C64.1786 34.997 64.1786 36.505 64.2176 38H62.2806ZM55.3516 28.809V28.38H59.6286V28.809L57.6396 28.978H57.2756L55.3516 28.809ZM61.1236 28.809V28.38H65.4136V28.809L63.4506 28.978H63.0996L61.1236 28.809Z" fill="white"/>
<path d="M70.9075 38.247C68.5155 38.247 66.4225 36.492 66.4225 33.19C66.4225 29.927 68.5155 28.133 70.9075 28.133C73.3125 28.133 75.3925 29.901 75.3925 33.19C75.3925 36.466 73.3255 38.247 70.9075 38.247ZM70.9075 37.766C72.6365 37.766 73.4555 35.79 73.4555 33.19C73.4555 30.603 72.6365 28.614 70.9075 28.614C69.1915 28.614 68.3595 30.603 68.3595 33.19C68.3595 35.79 69.1915 37.766 70.9075 37.766Z" fill="white"/>
<path d="M81.3304 38.247C78.9384 38.247 76.8454 36.492 76.8454 33.19C76.8454 29.927 78.9384 28.133 81.3304 28.133C83.7354 28.133 85.8154 29.901 85.8154 33.19C85.8154 36.466 83.7484 38.247 81.3304 38.247ZM81.3304 37.766C83.0594 37.766 83.8784 35.79 83.8784 33.19C83.8784 30.603 83.0594 28.614 81.3304 28.614C79.6144 28.614 78.7824 30.603 78.7824 33.19C78.7824 35.79 79.6144 37.766 81.3304 37.766Z" fill="white"/>
<path d="M86.836 38V37.584L88.825 37.389H89.007V38H86.836ZM88.045 38C88.084 36.544 88.084 35.023 88.084 33.333V32.93C88.084 31.37 88.084 29.875 88.045 28.38H89.969C89.93 29.849 89.93 31.37 89.93 32.93V33.333C89.93 34.997 89.93 36.505 89.969 38H88.045ZM89.007 38V37.545H90.697C92.803 37.545 93.973 35.92 93.973 33.19C93.973 30.356 92.803 28.848 90.775 28.848H89.007V28.38H90.957C94.051 28.38 95.884 30.174 95.884 33.177C95.884 36.167 93.947 38 90.749 38H89.007ZM86.836 28.809V28.38H89.007V28.978H88.825L86.836 28.809Z" fill="white"/>
</svg>
