<svg width="18" height="18" viewBox="0 0 18 18" fill="none" xmlns="http://www.w3.org/2000/svg">
<path d="M12.7422 11.3439C13.5329 10.2673 14 8.9382 14 7.5C14 3.91015 11.0899 1 7.5 1C3.91015 1 1 3.91015 1 7.5C1 11.0899 3.91015 14 7.5 14C8.93858 14 10.268 13.5327 11.3448 12.7415L11.3439 12.7422C11.3734 12.7822 11.4062 12.8204 11.4424 12.8566L15.2929 16.7071C15.6834 17.0976 16.3166 17.0976 16.7071 16.7071C17.0976 16.3166 17.0976 15.6834 16.7071 15.2929L12.8566 11.4424C12.8204 11.4062 12.7822 11.3734 12.7422 11.3439ZM13 7.5C13 10.5376 10.5376 13 7.5 13C4.46243 13 2 10.5376 2 7.5C2 4.46243 4.46243 2 7.5 2C10.5376 2 13 4.46243 13 7.5Z" fill="#151823" stroke="#151823" stroke-width="0.25"/>
</svg>
