<svg width="25" height="24" viewBox="0 0 25 24" fill="none" xmlns="http://www.w3.org/2000/svg">
<path d="M8.20568 22.5C17.2621 22.5 22.2177 14.9956 22.2177 8.49877C22.2177 8.28765 22.2177 8.07653 22.2081 7.8654C23.1685 7.17446 24.004 6.30118 24.6667 5.31275C23.7831 5.7062 22.8323 5.96531 21.8335 6.09006C22.8515 5.48548 23.6294 4.51624 24.004 3.36466C23.0532 3.93086 21.9968 4.33391 20.8731 4.55463C19.9704 3.59498 18.6931 3 17.2813 3C14.5634 3 12.3545 5.20718 12.3545 7.92298C12.3545 8.30684 12.4026 8.6811 12.4794 9.04577C8.38815 8.84424 4.7579 6.87697 2.32813 3.90207C1.90556 4.6314 1.66546 5.47589 1.66546 6.37795C1.66546 8.08612 2.53941 9.59277 3.85514 10.4756C3.04842 10.4468 2.28971 10.2261 1.62705 9.86146C1.62705 9.88066 1.62705 9.89985 1.62705 9.92864C1.62705 12.3086 3.32693 14.3046 5.57423 14.7557C5.16126 14.8708 4.72909 14.9284 4.27771 14.9284C3.96078 14.9284 3.65346 14.8996 3.35574 14.842C3.97999 16.7997 5.80472 18.22 7.95598 18.2584C6.2657 19.5827 4.14326 20.3696 1.83833 20.3696C1.44458 20.3696 1.05082 20.3504 0.666664 20.3024C2.83713 21.6843 5.43017 22.5 8.20568 22.5Z" fill="#D1D2D4"/>
</svg>
