<svg width="16" height="17" viewBox="0 0 16 17" fill="none" xmlns="http://www.w3.org/2000/svg">
<path d="M13.5 0.0495605C13.2239 0.0495605 13 0.273418 13 0.549561C13 0.825703 13.2239 1.04956 13.5 1.04956H15V3.79956H14.5C14.2239 3.79956 14 4.02342 14 4.29956C14 4.5757 14.2239 4.79956 14.5 4.79956H15V7.54956H13.5C13.2239 7.54956 13 7.77342 13 8.04956C13 8.3257 13.2239 8.54956 13.5 8.54956H15V11.2996H14.5C14.2239 11.2996 14 11.5234 14 11.7996C14 12.0757 14.2239 12.2996 14.5 12.2996H15V15.0496H13.5C13.2239 15.0496 13 15.2734 13 15.5496C13 15.8257 13.2239 16.0496 13.5 16.0496H15.5C15.7761 16.0496 16 15.8257 16 15.5496V0.549561C16 0.273418 15.7761 0.0495605 15.5 0.0495605H13.5Z" fill="black"/>
<path d="M7 1.54956L7.36358 1.20632C7.26912 1.10627 7.1376 1.04956 7 1.04956C6.8624 1.04956 6.73088 1.10627 6.63642 1.20632L6.63563 1.20716L6.63398 1.20892L6.6281 1.21518L6.6064 1.23848C6.58761 1.25872 6.56032 1.28831 6.52538 1.32668C6.4555 1.40339 6.35497 1.51524 6.23059 1.65764C5.98196 1.94231 5.63741 2.34981 5.25169 2.84341C4.48333 3.82665 3.53825 5.16836 2.86716 6.57074C2.36799 7.61387 2 8.73204 2 9.78289C2 12.6641 4.21185 15.0496 7 15.0496C9.78815 15.0496 12 12.6641 12 9.78289C12 8.73204 11.632 7.61387 11.1328 6.57074C10.4617 5.16836 9.51667 3.82665 8.74831 2.84341C8.36259 2.34981 8.01804 1.94231 7.76941 1.65764C7.64503 1.51524 7.5445 1.40339 7.47462 1.32668C7.43968 1.28831 7.41239 1.25872 7.3936 1.23848L7.3719 1.21518L7.36602 1.20892L7.36437 1.20716C7.36437 1.20716 7.36358 1.20632 7 1.54956ZM7 1.54956C6.63642 1.20632 6.63642 1.20632 6.63642 1.20632L7 1.54956ZM6.98377 2.31546L7 2.29689L7.01623 2.31546C7.25521 2.58908 7.58783 2.98243 7.96037 3.45916C8.57121 4.24083 9.28047 5.23539 9.86119 6.28657H4.13881C4.71953 5.23539 5.42879 4.24083 6.03963 3.45916C6.41217 2.98243 6.74479 2.58908 6.98377 2.31546ZM3 9.78289C3 9.02787 3.24353 8.17068 3.6378 7.28657H10.3622C10.7565 8.17068 11 9.02787 11 9.78289C11 12.1668 9.18241 14.0496 7 14.0496C4.81759 14.0496 3 12.1668 3 9.78289Z" fill="black"/>
</svg>
