<svg width="25" height="24" viewBox="0 0 25 24" fill="none" xmlns="http://www.w3.org/2000/svg">
<path d="M12.7434 2.99805C12.7519 2.99806 12.7611 2.99809 12.771 2.99811L12.8772 2.99844C14.1099 3.00297 20.3575 3.04826 22.042 3.50112C23.0747 3.77809 23.8878 4.59432 24.1638 5.63042C24.3157 6.19966 24.4216 6.95626 24.4954 7.73439L24.5098 7.89026C24.5214 8.0203 24.5321 8.15064 24.5421 8.2805L24.5536 8.43605C24.6522 9.80721 24.6637 11.0903 24.665 11.371L24.6652 11.4089C24.6652 11.412 24.6652 11.4171 24.6652 11.4171V11.4383C24.6652 11.4383 24.6652 11.4434 24.6652 11.4465L24.665 11.4844C24.6636 11.7757 24.6513 13.1466 24.5421 14.575L24.5297 14.731L24.5166 14.8872C24.4424 15.7461 24.3309 16.5989 24.1638 17.225C23.8878 18.2611 23.0747 19.0775 22.042 19.3543C20.3014 19.8224 13.6883 19.8552 12.771 19.8575L12.7004 19.8577C12.6946 19.8577 12.6895 19.8577 12.6851 19.8577L12.6563 19.8577C12.6563 19.8577 12.6496 19.8577 12.6453 19.8577L12.5594 19.8575C12.0958 19.8564 10.1775 19.8474 8.1686 19.7784L7.91176 19.7693C7.8689 19.7677 7.82603 19.7661 7.78316 19.7645L7.52603 19.7543L7.26948 19.7434C5.60522 19.6704 4.01844 19.5506 3.28849 19.3543C2.25586 19.0775 1.44271 18.2611 1.16673 17.225C0.999526 16.5989 0.88806 15.7461 0.813749 14.8872L0.800643 14.731L0.788331 14.575C0.683012 13.1985 0.667723 11.8755 0.665504 11.5204L0.665239 11.4696C0.66522 11.465 0.665205 11.4608 0.665192 11.4569V11.3985C0.665205 11.3946 0.66522 11.3904 0.665239 11.3859L0.665504 11.335C0.667514 11.0134 0.680243 9.898 0.760863 8.66787L0.771298 8.51356C0.773098 8.48776 0.774928 8.46192 0.776789 8.43605L0.788331 8.2805C0.798267 8.15064 0.809004 8.0203 0.820607 7.89026L0.834951 7.73439C0.908787 6.95626 1.01473 6.19966 1.16673 5.63042C1.44271 4.59432 2.25586 3.77809 3.28849 3.50112C4.01844 3.30488 5.60522 3.18517 7.26948 3.11215L7.52603 3.10128L7.78316 3.09112C7.82603 3.08949 7.8689 3.08788 7.91176 3.0863L8.1686 3.07717C10.0493 3.01261 11.8505 3.00066 12.4532 2.99844L12.5594 2.99811C12.5692 2.99809 12.5784 2.99806 12.587 2.99805H12.7434ZM10.2652 7.81484V15.0406L16.5004 11.4279L10.2652 7.81484Z" fill="#D1D2D4"/>
</svg>
